# xmcd
#
# Track frame offsets:
#	150
#	13323
#	27171
#	39819
#	51717
#	65190
#	77463
#	92136
#	106284
#	120957
#	134655
#	147678
#
# Disc length: 2117 seconds
#
# Revision: 1
# Processed by: cddbd v1.5.2PL0 Copyright (c) Steve Scherf et al.
# Submitted via: audiograbber 1.83.01
#
DISCID=ab08430c
DTITLE=Ernest Tubb - Legends
DYEAR=2010
DGENRE=Country
TTITLE0=Slipping Around
TTITLE1=Goodnight Irene
TTITLE2=Blue Christmas
TTITLE3=Walkin' The Floor Over You
TTITLE4=Mean Mama Blues
TTITLE5=I Love You Because
TTITLE6=Soldier's Last Letter
TTITLE7=Tomorrow Never Comes
TTITLE8=It's Been So Long Darling
TTITLE9=Filipino Baby
TTITLE10=Have You Ever Been Lonely (Have You Ever Been Blue)
TTITLE11=The Yellow Rose Of Texas
EXTD=
EXTT0=
EXTT1=
EXTT2=
EXTT3=
EXTT4=
EXTT5=
EXTT6=
EXTT7=
EXTT8=
EXTT9=
EXTT10=
EXTT11=
PLAYORDER=
